<?xml version="1.0" standalone="no"?>
<!DOCTYPE svg PUBLIC "-//W3C//DTD SVG 20010904//EN"
 "http://www.w3.org/TR/2001/REC-SVG-20010904/DTD/svg10.dtd">
<svg version="1.0" xmlns="http://www.w3.org/2000/svg"
 width="1300.000000pt" height="1300.000000pt" viewBox="0 0 1300.000000 1300.000000"
 preserveAspectRatio="xMidYMid meet">

<g transform="translate(0.000000,1300.000000) scale(0.100000,-0.100000)"
fill="#51aa48" stroke="none">
<path d="M6225 11293 c-341 -21 -681 -54 -770 -73 -22 -5 -56 -12 -75 -15 -69
-11 -247 -56 -325 -81 -375 -121 -664 -294 -975 -582 -393 -364 -591 -705
-631 -1086 -5 -55 -15 -108 -20 -118 -14 -26 -93 -63 -199 -93 -419 -118 -823
-509 -1195 -1160 -70 -122 -244 -462 -302 -590 -82 -182 -116 -295 -183 -611
-102 -481 -123 -614 -141 -894 -18 -284 1 -733 41 -989 62 -389 185 -712 342
-897 177 -207 560 -458 1163 -762 352 -178 488 -236 675 -288 52 -14 127 -41
165 -59 70 -34 98 -59 413 -383 89 -91 250 -237 337 -307 161 -127 297 -207
520 -304 55 -24 142 -68 193 -97 124 -69 292 -122 472 -148 297 -43 388 -51
620 -50 186 0 267 4 390 22 85 12 268 33 405 47 138 13 264 27 280 30 17 2 50
7 75 10 244 29 510 119 1013 344 75 33 199 89 275 122 329 147 440 219 656
429 175 169 268 289 420 540 32 52 83 131 114 174 115 161 417 397 717 561
241 132 415 320 546 592 182 376 310 952 350 1574 40 622 -157 1737 -391 2214
-115 234 -373 589 -544 748 -234 218 -560 390 -1096 578 -101 35 -208 63 -465
119 -344 76 -357 83 -421 228 -85 194 -219 361 -461 577 -117 105 -205 171
-368 277 -309 201 -506 298 -698 342 -184 42 -682 74 -922 59z m564 -123 c350
-27 485 -78 996 -381 190 -112 400 -286 591 -491 105 -112 164 -205 198 -314
60 -191 88 -215 270 -234 88 -9 350 -67 501 -111 176 -51 242 -72 272 -85 17
-8 36 -14 42 -14 6 0 25 -7 43 -15 18 -8 76 -31 128 -51 213 -83 440 -205 599
-322 199 -146 290 -248 506 -567 37 -55 78 -113 90 -130 39 -51 122 -216 155
-305 64 -176 154 -514 204 -765 43 -218 106 -690 113 -845 19 -469 -151 -1047
-410 -1390 -103 -137 -281 -314 -447 -444 -187 -148 -436 -289 -607 -345 -223
-73 -279 -131 -373 -391 -64 -178 -68 -187 -112 -263 -22 -40 -52 -92 -67
-117 -79 -140 -256 -356 -379 -463 -195 -170 -649 -439 -949 -561 -264 -108
-756 -245 -1008 -281 -378 -55 -934 -88 -1107 -66 -37 4 -62 3 -69 -3 -9 -8
-10 -8 -6 0 5 8 -10 14 -41 19 -219 32 -509 126 -727 235 -349 175 -595 403
-795 737 -207 348 -276 394 -816 548 -330 93 -637 222 -879 368 -305 183 -507
396 -732 772 -199 332 -315 642 -370 995 -14 92 -18 175 -18 410 0 332 16 477
81 744 83 336 174 539 461 1019 266 447 386 605 597 786 193 166 370 268 561
320 60 17 134 43 164 58 79 40 93 72 102 237 10 188 36 287 117 451 141 284
462 605 887 885 331 218 705 314 1450 373 102 9 664 6 784 -3z m-5266 -5367
c9 -38 25 -122 37 -188 58 -328 334 -857 620 -1190 203 -234 364 -356 680
-514 292 -145 595 -258 903 -335 320 -81 357 -110 584 -454 85 -128 175 -260
200 -293 164 -216 503 -441 858 -572 438 -160 966 -193 1644 -101 275 37 559
109 951 241 313 106 588 245 903 455 241 162 415 345 624 658 96 144 120 189
211 392 113 251 133 272 324 349 343 137 635 339 915 633 170 179 289 350 363
526 46 110 75 141 82 89 7 -49 -9 -139 -57 -314 -137 -499 -247 -745 -404
-909 -82 -85 -163 -141 -347 -241 -109 -58 -216 -127 -327 -210 -227 -170
-327 -273 -457 -475 -200 -308 -244 -370 -327 -460 -159 -173 -272 -269 -423
-360 -148 -90 -529 -274 -741 -357 -544 -215 -872 -279 -1750 -343 -304 -23
-325 -22 -749 36 -304 41 -457 92 -806 269 -375 190 -648 403 -900 702 -186
221 -279 286 -479 338 -182 48 -328 108 -650 265 -243 119 -339 171 -610 333
-383 229 -552 382 -657 592 -98 195 -197 590 -233 932 -18 163 -31 508 -21
546 10 43 22 32 39 -40z m5558 -3580 c13 -16 12 -17 -3 -4 -10 7 -18 15 -18
17 0 8 8 3 21 -13z"/>
<path d="M5640 10154 c-139 -21 -234 -49 -435 -126 -198 -76 -295 -132 -358
-207 -56 -67 -93 -215 -103 -417 -13 -242 35 -459 185 -839 17 -44 38 -95 47
-113 23 -53 29 -143 11 -178 -23 -45 -128 -139 -170 -153 -42 -14 -54 -10
-202 76 -96 56 -128 64 -295 73 -80 5 -210 18 -290 30 -172 27 -379 31 -460
11 -139 -35 -241 -117 -323 -260 -115 -200 -137 -239 -160 -291 -28 -63 -63
-150 -106 -265 -43 -116 -75 -186 -122 -262 -23 -38 -55 -90 -71 -116 -70
-118 -114 -280 -103 -379 6 -61 36 -158 59 -192 7 -12 21 -52 31 -91 22 -91
16 -164 -33 -360 -35 -142 -37 -159 -37 -310 0 -175 11 -249 57 -390 90 -274
262 -526 462 -677 139 -105 306 -172 494 -199 206 -29 396 37 757 261 83 51
170 105 195 120 134 84 273 75 341 -22 31 -43 27 -89 -16 -193 -31 -74 -36
-98 -33 -140 5 -49 34 -125 69 -175 31 -45 79 -147 79 -167 0 -11 -15 -39 -32
-63 -69 -91 -78 -105 -94 -152 -14 -43 -14 -53 0 -101 15 -50 105 -210 201
-357 160 -244 446 -449 738 -530 101 -28 151 -25 275 15 167 55 299 61 512 21
370 -70 425 -74 605 -51 269 34 651 141 830 232 179 90 330 223 432 380 69
106 95 177 101 279 8 140 -22 214 -173 424 -110 153 -151 228 -165 301 -17 91
20 141 134 179 36 12 73 32 88 48 23 26 126 169 160 222 38 60 148 167 199
192 116 58 211 47 346 -39 152 -97 196 -115 298 -121 197 -10 399 87 623 303
167 160 227 262 331 570 74 220 111 389 111 511 0 83 -26 335 -45 441 -48 258
-169 543 -333 778 -45 65 -127 170 -152 195 -3 3 -27 30 -55 60 -245 270 -730
597 -970 655 -178 42 -347 26 -494 -47 -91 -45 -179 -125 -380 -347 -145 -158
-259 -223 -357 -201 -38 9 -64 24 -141 84 -28 23 -77 57 -108 76 -31 19 -63
47 -71 62 -18 35 -18 95 1 184 11 53 12 85 5 130 -19 112 -14 136 34 206 115
162 164 242 220 358 56 114 61 131 61 190 -1 54 -9 85 -49 185 -92 228 -158
339 -268 447 -148 146 -285 201 -498 200 -133 0 -269 -23 -500 -83 -139 -36
-238 -46 -300 -29 -25 6 -100 36 -168 66 -161 72 -294 97 -422 78z m265 -116
c38 -11 105 -38 150 -60 188 -95 230 -98 498 -29 416 107 566 113 734 31 132
-65 273 -212 351 -365 40 -81 90 -223 100 -289 12 -74 3 -157 -22 -203 -22
-41 -54 -79 -60 -72 -3 3 -15 46 -25 95 -12 55 -36 124 -64 179 -24 50 -59
128 -78 175 -70 178 -190 251 -434 267 -125 7 -189 -3 -475 -75 l-225 -56
-185 -1 -185 0 -80 33 c-122 49 -180 58 -272 43 -352 -58 -501 -109 -624 -212
-77 -66 -139 -109 -156 -109 -34 0 12 251 61 333 56 96 169 168 371 237 312
107 458 125 620 78z m1318 -398 c102 -38 151 -99 182 -220 9 -36 41 -118 72
-184 l56 -118 -1 -97 c-1 -126 -11 -167 -61 -250 l-42 -69 -3 -148 c-2 -82 -7
-189 -11 -239 -7 -89 -6 -91 23 -137 32 -48 132 -138 217 -193 110 -71 221
-92 322 -59 26 8 109 58 183 110 236 166 357 211 534 201 118 -6 269 -56 426
-139 63 -33 186 -98 273 -144 314 -166 358 -208 528 -497 28 -48 125 -153 239
-259 72 -65 130 -169 191 -338 68 -189 86 -234 130 -325 l44 -90 -1 -115 c0
-114 0 -116 -67 -320 -37 -113 -84 -236 -104 -275 -99 -191 -318 -404 -503
-489 -148 -68 -304 -74 -406 -17 -31 18 -74 45 -97 62 -63 46 -186 81 -287 82
-74 1 -93 -2 -145 -28 -76 -36 -155 -116 -262 -267 -106 -148 -143 -181 -234
-209 -157 -48 -204 -148 -168 -356 9 -51 8 -92 -6 -208 -18 -155 -16 -202 15
-365 10 -52 26 -149 35 -215 10 -76 25 -139 40 -173 29 -63 25 -74 -37 -125
-152 -121 -368 -208 -678 -271 -399 -81 -487 -84 -770 -26 -247 50 -385 64
-492 50 -94 -13 -174 -42 -170 -62 3 -9 0 -10 -8 -2 -8 8 -22 7 -53 -4 -71
-26 -170 -20 -267 17 -109 40 -262 125 -355 196 -97 74 -213 197 -271 287 -26
40 -55 85 -65 100 -41 60 -89 166 -95 209 -7 53 5 82 63 149 54 61 63 81 63
134 0 55 -10 78 -74 180 -81 128 -86 179 -34 316 75 200 -62 378 -275 356 -78
-8 -111 -24 -317 -155 -202 -129 -359 -209 -486 -247 -75 -22 -108 -27 -209
-27 -181 0 -341 48 -497 148 -194 126 -370 362 -461 620 -75 210 -91 405 -49
595 12 52 31 140 43 195 14 63 22 139 23 205 1 100 -1 108 -33 175 -48 102
-71 172 -71 222 0 191 273 596 516 766 155 107 245 130 494 125 l185 -4 152
-52 c329 -112 513 -91 715 82 125 108 218 240 254 361 24 81 24 236 0 339 -10
43 -49 161 -86 262 -124 331 -157 473 -130 570 23 80 145 196 276 261 83 42
133 57 339 99 217 44 250 42 420 -17 104 -37 134 -43 225 -47 127 -5 250 13
480 68 259 62 312 70 445 66 93 -3 133 -8 178 -26z m1789 -1125 c143 -30 266
-90 491 -241 448 -302 620 -499 872 -1004 92 -184 134 -313 137 -420 1 -43 -1
-82 -5 -86 -22 -22 -75 81 -107 206 -42 169 -59 196 -232 370 -103 103 -137
146 -197 245 -141 231 -188 273 -481 435 -45 25 -97 55 -117 68 -71 46 -261
140 -353 175 -139 52 -236 71 -331 63 -43 -3 -115 -9 -159 -12 -44 -4 -80 -3
-80 2 1 14 53 79 85 106 110 92 301 129 477 93z m-5140 -284 c143 -27 240 -39
403 -50 165 -11 227 -30 347 -103 120 -73 130 -78 161 -78 37 0 60 13 129 72
62 53 91 59 96 18 7 -60 -172 -282 -302 -374 -163 -117 -282 -112 -646 25
l-115 43 -180 0 c-256 1 -331 -22 -508 -157 -76 -57 -154 -107 -169 -107 -26
0 4 81 103 278 152 304 196 351 398 417 124 40 146 41 283 16z m4529 -3921
c155 -236 201 -341 203 -460 1 -79 -27 -144 -92 -208 -79 -79 -116 -42 -132
134 -6 74 -20 139 -41 204 -27 80 -33 114 -36 215 -5 137 4 178 39 173 15 -2
36 -23 59 -58z"/>
</g>
</svg>
